<svg width="418" height="418" viewBox="0 0 418 418" fill="none" xmlns="http://www.w3.org/2000/svg">
<path d="M169.3 173.1H134.2C132.3 173.1 130.7 174.7 130.7 176.6V282.2C130.7 284.1 132.3 285.7 134.2 285.7H169.3C171.2 285.7 172.8 284.1 172.8 282.2V176.6C172.8 174.7 171.3 173.1 169.3 173.1Z" fill="black"/>
<path d="M151.6 165.7H151.8C158.7 165.7 164.6 163.4 168.7 159.4C172.9 155.3 175.2 149.8 175.1 143.9V143.8C175.1 140.9 174.5 138 173.4 135.3C171.8 131.3 168.9 128 165.3 125.7C161.3 123.3 156.7 122 152 122.1C145.2 122.1 139.3 124.4 135.2 128.3C131 132.4 128.6 138 128.7 143.9C128.6 149.7 130.9 155.3 135.1 159.3C139.5 163.6 145.4 165.8 151.6 165.7Z" fill="black"/>
<path d="M185.3 275.1C185.3 277.3 185.3 279.1 185.3 280.4V282.3C185.3 284.2 186.8 285.8 188.8 285.8H223.9C225.8 285.8 227.4 284.2 227.4 282.3V223.3C227.4 221.9 227.5 220.5 227.6 219.1C227.7 218.1 227.9 217.1 228.3 216.1C229.4 213.2 231.2 210.7 233.6 208.7C234.8 207.7 236.2 206.9 237.7 206.3C239.4 205.7 241.2 205.4 243.1 205.4C245.4 205.3 247.6 205.8 249.7 206.8C251 207.4 252.1 208.3 253 209.4C254.6 211.3 255.7 213.6 256.3 216C257.1 219.2 257.5 222.5 257.4 225.9V282.4C257.4 284.3 259 285.9 260.9 285.9H296C297.9 285.9 299.5 284.3 299.5 282.4V221.8C299.6 214.3 298.5 206.8 296.2 199.6C293 190 287.5 182.7 280.4 177.9C273.3 173.1 264.7 170.8 255.5 170.8C251 170.8 246.6 171.4 242.3 172.7C237.2 174.3 232.5 176.9 228.6 180.5C228.2 180.9 227.7 181.3 227.3 181.7V176.8C227.3 174.9 225.7 173.3 223.8 173.3H188.6C186.7 173.3 185.1 174.9 185.1 176.8C185.1 176.9 185.1 176.9 185.1 177C185.1 177.7 185.2 179.1 185.2 181C185.3 186.7 185.3 196.9 185.3 208.6C185.3 224.2 185.2 242.7 185.2 257.2C185.3 264.3 185.3 270.6 185.3 275.1Z" fill="black"/>
<path d="M208.5 417.8C323.7 417.9 417.1 324.7 417.3 209.5C417.5 94.3 324.1 0.900001 209 0.700001C93.9 0.500001 0.299985 93.9 0.199985 209C0.0999854 264.4 22.1 317.5 61.3 356.7C100.3 395.9 153.3 417.8 208.5 417.8ZM208.5 22.1C312.1 22 396.2 106 396.3 209.6C396.4 313.2 312.4 397.3 208.8 397.4C105.2 397.4 21.1 313.5 21 209.9C21 160.1 40.7 112.3 76 77C111.1 41.8 158.8 22 208.5 22.1Z" fill="black"/>
</svg>
