<svg width="480" height="480" viewBox="0 0 480 480" fill="none" xmlns="http://www.w3.org/2000/svg">
<path fill-rule="evenodd" clip-rule="evenodd" d="M409.585 70.279C366.143 26.831 306.224 0 239.931 0C173.639 0 113.722 26.831 70.279 70.278C26.836 113.723 0 173.637 0 239.93C0 306.22 26.836 366.139 70.279 409.582C113.722 453.029 173.638 479.858 239.931 479.858C306.224 479.858 366.143 453.029 409.585 409.582C453.028 366.139 479.867 306.22 479.867 239.93C479.867 173.638 453.029 113.724 409.585 70.279ZM396.436 396.429C356.315 436.422 301.042 461.131 239.931 461.131C178.822 461.131 123.552 436.422 83.564 396.429C43.573 356.312 18.731 301.044 18.731 239.931C18.731 178.82 43.573 123.552 83.564 83.564C123.552 43.576 178.822 18.729 239.931 18.729C301.042 18.729 356.315 43.576 396.436 83.564C436.424 123.552 461.134 178.82 461.134 239.931C461.134 301.044 436.424 356.312 396.436 396.429Z" fill="#262626"/>
<path fill-rule="evenodd" clip-rule="evenodd" d="M259.971 171.246C259.971 161.813 264.508 157.93 269.032 157.93C273.414 157.93 297.971 157.93 297.971 157.93V114.93H258.664C216.551 114.93 205.971 148.659 205.971 168.855V187.93H181.971V220.533V235.93H205.971C205.971 293.93 205.971 361.93 205.971 361.93H259.971C259.971 361.93 259.971 293.93 259.971 235.93H292.676L294.271 217.178L297.196 187.93H259.971V171.246Z" fill="#262626"/>
</svg>
