<svg width="140" height="47" viewBox="0 0 140 47" fill="none" xmlns="http://www.w3.org/2000/svg">
<path fill-rule="evenodd" clip-rule="evenodd" d="M71.5805 14.8303C71.4129 14.8303 71.2468 14.8345 71.0806 14.8515C69.8248 14.9961 68.7055 15.9473 68.3422 17.1636C68.2479 17.4627 68.2253 17.7802 68.1775 18.0878C66.9709 26.7305 65.7629 35.3732 64.5563 44.0146C64.4676 44.6595 64.8928 45.194 65.4278 45.4987C65.9501 45.795 66.5598 45.9098 67.1553 45.897H70.8131C72.1549 45.8446 73.3897 44.8495 73.7726 43.5624C73.8374 43.3512 73.8655 43.1314 73.8965 42.9131C75.113 34.2009 76.3308 25.4873 77.5459 16.7751C77.5853 16.5427 77.5628 16.3031 77.4755 16.0862C77.1869 15.3647 76.3731 15.0004 75.6578 14.8813C75.3326 14.8274 75.0003 14.8303 74.6695 14.8303H72.0789C71.9127 14.8331 71.7466 14.8289 71.5805 14.8303ZM95.1254 13.7898C93.2373 13.7912 91.3436 14.0875 89.5485 14.6545C85.0319 16.0607 81.1347 19.5152 80.587 24.4454C80.3097 26.9502 80.8785 29.2197 82.8946 30.83C84.5194 32.1413 86.8326 33.0485 88.7882 33.6552C90.4031 34.157 94.1863 34.9749 94.9367 36.6093C95.1338 37.036 95.0648 37.535 94.8762 37.9503C94.1116 39.6174 91.5858 39.7095 90.0314 39.6372C88.1124 39.5436 86.2159 39.0433 84.4983 38.1729C83.5803 37.7249 82.6384 37.1423 81.7331 36.6462C80.9686 36.2535 79.952 36.4761 79.4198 37.1537C78.6117 38.2267 77.8049 39.3012 76.9954 40.3757C76.8532 40.5657 76.6983 40.7514 76.6096 40.9739C76.4054 41.4616 76.4913 42.0569 76.8278 42.4638C77.4347 43.2548 80.166 44.7418 81.0939 45.1628C82.1822 45.6575 83.3198 46.036 84.4771 46.3251C88.3616 47.3018 92.6601 47.3188 96.384 45.7071C100.86 43.7707 103.838 40.0015 104 35.0146C104.06 33.1449 103.674 31.2808 102.321 29.9115C101.298 28.8597 99.0535 27.8234 97.6484 27.3712C96.3925 26.963 95.1211 26.61 93.8512 26.2528C92.8459 25.9622 89.6738 25.2378 89.4077 23.9422C89.2993 23.405 89.4528 22.8167 89.8287 22.4155C91.6069 20.4834 96.5516 21.4388 98.603 22.3815C99.4322 22.7472 100.546 23.6275 101.334 23.7594C102.19 23.9096 102.776 23.3355 103.262 22.7104C103.8 22.0215 104.336 21.3354 104.871 20.6479C105.617 19.7491 105.683 18.3755 105.089 17.3804C104.774 16.8829 104.543 16.683 104.057 16.3541C101.408 14.6035 98.2721 13.787 95.1254 13.7898ZM3.542 1.91793C2.33399 1.85272 1.42446 3.34681 1.15836 4.41847C0.802155 5.8275 0.445947 7.23653 0.0925557 8.64415C-0.280547 10.2346 0.505081 12.0023 1.89612 12.8259C2.1946 13.0073 2.52688 13.1179 2.84648 13.2568C6.56202 14.7991 10.2761 16.3414 13.9931 17.8808C13.4285 21.9803 12.8611 26.0799 12.2951 30.1808C12.2092 30.7648 12.1374 31.3531 12.1079 31.9442C11.6686 40.1489 17.8368 46.138 25.9324 45.89C29.724 45.7737 33.103 44.3732 36.0428 41.962C39.4824 45.4902 44.2003 46.5151 48.9028 45.5866C55.6567 44.2513 61.5222 38.377 62.8794 31.5969C63.0343 30.8286 63.1314 30.049 63.237 29.2736C63.7988 25.1755 64.3592 21.0788 64.9195 16.9807C64.9829 16.5824 64.8688 16.167 64.6224 15.8523C64.0635 15.1294 63.0484 14.8445 62.1769 14.8374C60.7802 14.8388 59.3821 14.836 57.9854 14.8388C56.4677 14.887 55.0654 16.0196 54.6543 17.4853C54.574 17.7561 54.5487 18.0396 54.5092 18.3188C53.9953 22.0767 53.4815 25.8346 52.9661 29.5925C52.5424 32.4786 51.2105 34.9834 48.0426 35.5221C44.9254 36.0593 42.408 33.8239 42.7783 30.6571C43.1064 28.2317 43.4372 25.8063 43.7667 23.3809C43.7949 23.1286 43.8568 22.8776 43.8301 22.6225C43.7892 21.8868 43.433 21.1695 42.8515 20.7187C42.3658 20.3332 41.7435 20.1432 41.1282 20.1503C39.8724 20.1503 38.6123 20.1489 37.3564 20.1503C37.1128 20.1517 36.8678 20.1418 36.6257 20.1758C35.2163 20.3558 33.9717 21.4488 33.5986 22.828C33.5549 23.0435 33.5352 23.2618 33.5014 23.4801C33.1889 25.7 32.8805 27.9227 32.568 30.1425C32.2794 32.4645 30.9517 34.3767 28.7511 35.2414C27.7416 35.6355 26.6026 35.722 25.5522 35.4399C23.3277 34.8317 22.1394 32.6161 22.49 30.358C23.246 24.8877 24.0035 19.4203 24.7582 13.9514C25.0496 12.1625 24.0612 10.3268 22.359 9.67753C16.2641 7.13305 10.172 4.58574 4.07701 2.04551C3.89398 1.96754 3.71376 1.92643 3.542 1.91793ZM75.227 1.40336C75.0229 1.39911 74.8131 1.4062 74.6005 1.42604C71.6889 1.68971 69.3531 4.2271 69.1856 7.15148C69.0462 9.58114 70.7075 11.5544 73.1193 11.7641C76.0408 12.0165 78.8299 9.95679 79.4677 7.07635C80.1674 3.92942 78.2879 1.45156 75.227 1.40336ZM118.79 0C117.447 0.00141754 116.101 -0.00283508 114.758 0.00425261C113.289 0.0963926 111.963 1.29421 111.732 2.75995C109.747 16.3825 107.766 30.0064 105.785 43.629C105.516 45.2762 106.872 45.9325 108.325 45.9396C109.524 45.9382 110.725 45.9396 111.925 45.9396C113.613 45.9878 115.041 44.6496 115.266 42.9953C115.857 38.9327 116.449 34.8714 117.038 30.8116C117.367 28.4472 118.038 26.2755 119.885 24.6297C121.686 23.0421 123.885 22.2086 126.293 22.502C128.964 22.8365 130.037 24.7006 130.167 27.2422C130.241 28.7037 130.008 30.0391 129.807 31.4708C129.214 35.6043 128.622 39.7378 128.027 43.8714C127.735 45.2946 129.514 45.9183 130.638 45.897H134.38C135.708 45.8517 136.931 44.9005 137.368 43.6488C137.494 43.3001 137.521 42.9301 137.582 42.5673C138.319 37.7575 139.056 32.9478 139.794 28.1381C140.458 23.6474 139.61 19.4259 135.902 16.5866C133.835 15.0075 131.398 14.4433 128.837 14.4731C124.986 14.5113 121.872 15.5348 118.9 18.0906C119.67 12.7182 120.441 7.3471 121.213 1.97605C121.307 1.35091 120.991 0.8406 120.478 0.496138C119.982 0.164434 119.381 0.018428 118.79 0Z" fill="#222222"/>
</svg>
