<svg width="195" height="56" viewBox="0 0 195 56" fill="none" xmlns="http://www.w3.org/2000/svg">
<path fill-rule="evenodd" clip-rule="evenodd" d="M151.843 28.9867V41.4868H146.308V23.2009H150.183L151.343 24.6473C155.326 21.5937 159.968 22.3972 162.129 25.2187L163.147 24.433C165.361 22.7365 167.826 22.308 170.469 23.0223C172.129 23.4687 173.397 24.4866 173.969 26.1116C174.397 27.3616 174.772 28.683 174.808 29.9866C174.915 33.6653 174.862 37.344 174.862 41.0225C174.844 41.2011 174.826 41.3618 174.79 41.5225H169.254V38.3261V32.3795C169.254 32.0224 169.254 31.6475 169.219 31.2902C168.986 28.5044 167.415 27.4509 164.736 28.3081C164.254 28.4866 163.808 28.7009 163.361 28.9331V41.4868H157.718V40.1832V32.1831V31.826C157.647 28.3438 155.504 27.0938 152.379 28.683C152.218 28.7367 152.093 28.8259 151.843 28.9867" fill="#222222"/>
<path fill-rule="evenodd" clip-rule="evenodd" d="M118.307 36.2366V28.1472C117.968 27.9865 117.665 27.8079 117.325 27.7007C114.486 26.7008 111.914 27.8257 111.182 30.4329C111.004 31.0043 110.914 31.6116 110.914 32.2187C110.95 34.0045 111.254 35.7544 113.039 36.6652C114.825 37.5581 116.629 37.3259 118.307 36.2366V36.2366ZM123.897 41.5224H120.45L119.432 40.2545C117.504 41.6474 115.343 42.0938 113.004 41.9331C109.272 41.6652 106.664 39.5938 105.664 35.9866C105.021 33.7187 105.021 31.3258 105.682 29.0579C106.754 25.3793 109.843 22.8971 113.682 22.7543C115.2 22.7007 116.718 22.8971 118.325 23.0043V15.5042H123.897V41.5223V41.5224ZM97.2178 17.0042H103.039C103.075 17.2899 103.111 17.5221 103.111 17.7543C103.093 22.5579 103.093 27.3793 103.039 32.183C103.021 33.0758 102.914 33.9509 102.718 34.8258C101.879 38.6473 99.5571 40.9689 95.6642 41.7009C93.0392 42.2188 90.3249 42.1831 87.7355 41.576C84.1462 40.7188 81.9319 38.0224 81.4676 34.0045C81.3069 32.433 81.2176 30.8616 81.2176 29.2901C81.1819 25.6115 81.1998 21.9328 81.1998 18.2542V17.0042H87.057V18.3792C87.057 22.3436 87.0212 26.3079 87.0748 30.2722C87.0927 31.3972 87.2534 32.5222 87.5391 33.6115C87.8784 34.9509 88.8248 35.933 90.2178 36.1294C91.5213 36.3259 92.8606 36.3259 94.1642 36.1294C95.7713 35.8795 96.6106 34.6473 96.9321 33.1116C97.1107 32.2008 97.1999 31.2722 97.1999 30.3437C97.2357 25.9507 97.2178 21.5399 97.2178 17.0042Z" fill="#222222"/>
<path fill-rule="evenodd" clip-rule="evenodd" d="M132.218 30.4329H139.254C139.093 28.1115 137.45 27.0043 135.861 27.0043C133.825 27.0222 132.504 28.2186 132.218 30.4329V30.4329ZM143.879 33.2008H132.361C132.04 34.8437 133.075 36.4866 134.808 37.0223C136.754 37.6295 138.718 37.433 140.647 36.8437C141.45 36.5937 142.2 36.2187 143.058 35.8616L142.325 40.1653C141.129 41.2009 139.7 41.6295 138.2 41.8081C136.183 42.0402 134.165 41.9866 132.2 41.3617C129.522 40.4867 127.7 38.7188 126.879 36.0223C126.147 33.6473 126.111 31.1115 126.807 28.7365C127.79 25.2722 130.593 22.9864 134.2 22.7543C135.2 22.665 136.218 22.6829 137.218 22.8257C139.986 23.2722 141.915 24.8614 142.951 27.4686C143.683 29.2543 143.95 31.1651 143.879 33.2008H143.879Z" fill="#222222"/>
<path fill-rule="evenodd" clip-rule="evenodd" d="M181.237 23.2007C181.933 25.1829 182.612 27.1472 183.308 29.1115C183.987 31.0937 184.666 33.0759 185.451 35.3437L189.451 23.1829H194.987L185.326 47.6653H179.719L182.38 40.8796L175.041 23.2007H181.237Z" fill="#222222"/>
<path fill-rule="evenodd" clip-rule="evenodd" d="M43.3599 27.1652L42.5564 28.8259C40.0206 34.4867 37.2527 40.0403 33.6455 45.1297C31.7348 47.8261 29.6097 50.3084 26.9132 52.2726C24.4846 54.0226 21.8061 55.0941 18.7703 55.0762C15.4667 55.0584 12.8059 53.7012 10.8416 51.0405C9.05585 48.6119 8.34163 45.8083 8.12727 42.844C7.84152 38.8796 8.52016 35.0224 9.41307 31.2009C9.62735 30.308 9.80588 29.4152 10.038 28.3616C9.23446 28.8259 8.5559 29.2366 7.87726 29.5937C6.73442 30.2188 5.5201 30.5937 4.19864 30.558C1.60933 30.433 -0.06928 28.5401 0.00219663 25.8794C1.91295 24.2187 3.84149 22.7186 5.55583 20.9865C10.1094 16.3972 13.5916 11.0399 16.2524 5.16488C16.6274 4.28984 17.0739 3.43267 17.556 2.61123C18.8239 0.575475 20.8596 -0.335227 22.9668 0.11119C24.9847 0.539815 26.2525 2.05768 26.6633 4.48624C27.199 7.61132 26.5561 10.6292 25.8418 13.6292C24.4132 19.5222 22.9132 25.4152 21.5203 31.3259C20.8418 34.2189 20.4667 37.1652 20.6631 40.1474C20.7168 41.0225 20.8953 41.8975 21.181 42.7189C21.7882 44.3261 23.1989 44.7368 24.5204 43.6297C25.3418 42.9154 26.074 42.1296 26.7347 41.2725C30.4668 36.5403 33.5384 31.3795 36.2883 26.0402C38.6276 21.4865 40.9313 16.915 43.2706 12.3614C43.6635 11.5756 44.1278 10.8257 44.5742 10.0756C46.3243 7.20056 50.5922 7.45057 52.3064 10.2899C53.235 11.8256 53.6815 13.54 53.8064 15.3078C53.9494 17.1471 53.985 18.9865 54.0565 20.8257C54.2172 24.8259 54.3601 28.8259 54.5565 32.8259C54.6101 33.5759 54.7707 34.326 55.0565 35.0402C55.5744 36.3795 56.5565 36.8796 57.9316 36.4688C58.6994 36.2545 59.4315 35.9153 60.0744 35.451C61.8959 34.0759 63.6281 32.6117 65.5209 31.0759C66.3066 31.3081 66.7709 32.0045 67.0388 32.8795C67.5388 34.5403 67.2173 36.1474 66.6102 37.6831C64.9138 42.0047 61.5566 44.4332 57.1815 45.3975C55.5029 45.7368 53.7708 45.8082 52.0564 45.5761C48.7171 45.1654 46.4849 43.1475 45.1813 40.076C43.9671 37.2189 43.6813 34.2009 43.5563 31.1473C43.5028 29.8437 43.5563 28.5401 43.5563 27.2188L43.3599 27.1652Z" fill="#222222"/>
</svg>
