<svg width="202" height="39" viewBox="0 0 202 39" fill="none" xmlns="http://www.w3.org/2000/svg">
<path fill-rule="evenodd" clip-rule="evenodd" d="M165.509 38.0094C162.17 38.0094 160.303 35.9826 160.303 32.4451V22.5083C160.303 18.9723 162.131 16.9065 165.509 16.9065C168.888 16.9065 170.715 18.9312 170.715 22.4692V23.8603H167.337V22.6665C167.337 20.9188 166.779 19.9657 165.509 19.9657C164.238 19.9657 163.682 20.9595 163.682 22.6665V32.2454C163.682 33.9955 164.238 34.9485 165.509 34.9485C166.779 34.9485 167.337 33.9955 167.337 32.2454V31.0935H170.715V32.4451C170.715 35.9826 168.846 38.0094 165.509 38.0094" fill="#222222"/>
<path fill-rule="evenodd" clip-rule="evenodd" d="M179.302 22.6665C179.302 20.8386 178.467 19.9657 177.197 19.9657C175.922 19.9657 175.09 20.8386 175.09 22.6665V32.2454C175.09 34.0749 175.922 34.9485 177.197 34.9485C178.467 34.9485 179.302 34.0749 179.302 32.2454V22.6665ZM177.197 38.0094C173.778 38.0094 171.711 35.9826 171.711 32.4451V22.4692C171.711 18.9312 173.778 16.9065 177.197 16.9065C180.612 16.9065 182.68 18.9312 182.68 22.4692V32.4451C182.68 35.9826 180.612 38.0094 177.197 38.0094V38.0094Z" fill="#222222"/>
<path fill-rule="evenodd" clip-rule="evenodd" d="M198.421 37.692V22.6665C198.421 20.8387 197.826 19.9658 196.554 19.9658C195.282 19.9658 194.685 20.8387 194.685 22.6665V37.692H191.308V22.6665C191.308 20.8387 190.711 19.9658 189.439 19.9658C188.168 19.9658 187.572 20.8387 187.572 22.6665V37.692H184.193V22.4693C184.193 18.9313 186.021 16.9062 189.439 16.9062C191.148 16.9062 192.34 17.6616 192.977 18.6918C193.654 17.6616 194.847 16.9062 196.554 16.9062C199.97 16.9062 201.798 18.9313 201.798 22.4693V37.692H198.421Z" fill="#222222"/>
<path fill-rule="evenodd" clip-rule="evenodd" d="M153.524 37.4354H157.711V30.2325H153.524V37.4354Z" fill="#222222"/>
<path fill-rule="evenodd" clip-rule="evenodd" d="M13.6696 10.3777C13.6696 7.08679 12.169 5.58305 9.87784 5.58305C7.58706 5.58305 6.08332 7.08679 6.08332 10.3777V27.6287C6.08332 30.9232 7.58706 32.4957 9.87784 32.4957C12.169 32.4957 13.6696 30.9232 13.6696 27.6287V10.3777ZM13.8858 37.4354V35.0019C13.1691 36.8638 10.7364 38.0094 8.5176 38.0094C2.71929 38.0094 0 34.4307 0 27.9873V10.0199C0 3.65002 3.72297 0.000183105 9.87784 0.000183105C16.0343 0.000183105 19.7557 3.65002 19.7557 10.0199V37.4354H13.8858Z" fill="#222222"/>
<path fill-rule="evenodd" clip-rule="evenodd" d="M35.5796 37.4353V10.3776C35.5796 7.08666 34.5048 5.5094 32.2156 5.5094C29.924 5.5094 28.8512 7.08666 28.8512 10.3776V37.4353H22.769V10.0198C22.769 3.65029 26.0599 6.10352e-05 32.2156 6.10352e-05C38.3705 6.10352e-05 41.6653 3.65029 41.6653 10.0198V37.4353H35.5796Z" fill="#222222"/>
<path fill-rule="evenodd" clip-rule="evenodd" d="M87.8551 38.0093C84.7764 38.0093 82.628 36.6479 81.484 34.7864C80.2652 36.6479 78.1195 38.0093 75.0405 38.0093C68.8856 38.0093 65.5928 34.3575 65.5928 27.9872V0.57135H71.6773V27.6287C71.6773 30.9231 72.7501 32.4957 75.0405 32.4957C77.3321 32.4957 78.4049 30.9231 78.4049 27.6287V0.57135H84.4899V27.6287C84.4899 30.9231 85.5643 32.4957 87.8551 32.4957C90.1462 32.4957 91.2175 30.9231 91.2175 27.6287V0.57135H97.3036V27.9872C97.3036 34.3575 94.0103 38.0093 87.8551 38.0093" fill="#222222"/>
<path fill-rule="evenodd" clip-rule="evenodd" d="M113.633 10.3777C113.633 7.08679 112.199 5.50953 109.908 5.50953C107.617 5.50953 106.115 7.08679 106.115 10.3777V16.7737V18.7775L113.633 12.4416V10.3777ZM109.908 38.0094C103.753 38.0094 100.031 34.3576 100.031 27.9873V10.0199C100.031 3.65002 103.753 0.000183105 109.908 0.000183105C116.063 0.000183105 119.714 3.65002 119.714 10.0199V14.7272L106.115 26.0827V27.6287C106.115 30.9232 107.617 32.4957 109.908 32.4957C112.199 32.4957 113.633 30.9232 113.633 27.6287V25.5538H119.714V27.9873C119.714 34.3576 116.063 38.0094 109.908 38.0094V38.0094Z" fill="#222222"/>
<path fill-rule="evenodd" clip-rule="evenodd" d="M135.612 10.3777C135.612 7.08679 134.108 5.58305 131.816 5.58305C129.527 5.58305 128.025 7.08679 128.025 10.3777V27.6287C128.025 30.9232 129.527 32.4957 131.816 32.4957C134.108 32.4957 135.612 30.9232 135.612 27.6287V10.3777ZM135.824 37.4354V35.0019C135.109 36.8638 132.675 38.0094 130.455 38.0094C124.659 38.0094 121.938 34.4307 121.938 27.9873V10.0199C121.938 3.65002 125.659 0.000183105 131.816 0.000183105C137.974 0.000183105 141.697 3.65002 141.697 10.0199V37.4354H135.824Z" fill="#222222"/>
<path fill-rule="evenodd" clip-rule="evenodd" d="M150.862 13.0274V37.4354H144.707V12.5981C144.707 3.86629 148.858 0.0713745 157.663 0.571433V6.08315C153.226 5.86692 150.862 7.94503 150.862 13.0274" fill="#222222"/>
<path fill-rule="evenodd" clip-rule="evenodd" d="M53.6402 38.0094C47.4842 38.0094 43.7632 34.3576 43.7632 27.9873V25.5538H49.8457V27.6287C49.8457 30.9232 51.3498 32.5692 53.6402 32.5692C55.8591 32.5692 57.5067 31.1366 57.5067 28.2007C57.5067 26.1961 57.0766 25.1221 55.144 23.6211L49.4884 19.1103C46.2674 16.5345 44.4056 14.3892 44.4056 9.80687C44.4056 3.65041 47.6281 0.000183105 53.6402 0.000183105C59.6524 0.000183105 63.018 3.65041 63.018 10.0199V12.5269H56.9335V10.3777C56.9335 7.29985 55.8591 5.44074 53.6402 5.44074C51.4914 5.44074 50.4197 7.08679 50.4197 9.80687C50.4197 11.8107 50.8494 12.7404 52.7808 14.2434L58.4357 18.7518C61.6578 21.3304 63.5181 23.6211 63.5181 28.2007C63.5181 34.3576 59.6524 38.0094 53.6402 38.0094" fill="#222222"/>
</svg>
