<svg width="146" height="44" viewBox="0 0 146 44" fill="none" xmlns="http://www.w3.org/2000/svg">
<path fill-rule="evenodd" clip-rule="evenodd" d="M128.177 43.0257C136.487 43.0257 146.281 39.9317 145.514 29.8987C144.667 20.9907 135.398 18.7347 130.765 17.8087C125.309 16.6587 121.141 15.6057 121.141 11.7217C121.141 8.98273 123.595 6.98873 128.31 7.33073C132.617 7.64273 134.431 10.2757 134.928 12.8177C135 13.2337 135.194 13.5377 135.667 13.5417L143.414 13.6077C144.003 13.6107 144.187 13.3047 144.113 12.8857C142.596 3.60073 134.839 0.974731 127.7 0.974731C120.573 0.974731 111.985 2.97673 111.375 11.8437C111.354 12.1867 111.346 12.5247 111.346 12.8557C110.212 10.4967 108.576 8.33073 106.468 6.41273C102.576 2.90273 97.7244 1.02373 92.4334 0.976731H92.2584C89.7304 0.976731 87.2564 1.44273 84.9044 2.36573C82.5134 3.31173 80.3134 4.68273 78.4114 6.41273C76.4154 8.22773 74.8394 10.2647 73.7124 12.4767C72.0344 3.52873 64.4064 0.974731 57.3754 0.974731C50.8324 0.974731 43.0564 2.66673 41.3604 9.81373V2.71973C41.3594 2.34173 41.0524 2.03473 40.6744 2.03473H33.3794C33.0004 2.03573 32.6944 2.34273 32.6944 2.72073V4.63373C32.6944 4.95573 32.4794 5.06773 32.2174 4.88073C29.6214 2.99873 25.7824 0.978731 21.1634 0.978731C18.5674 0.978731 16.0884 1.43473 13.7944 2.33473C11.4984 3.23673 9.31636 4.60973 7.31436 6.41773C5.03436 8.49173 3.29836 10.8557 2.15936 13.4437C1.02136 16.0317 0.443359 18.9237 0.443359 22.0367C0.443359 24.9427 0.955359 27.6687 1.96336 30.1317C2.97136 32.5947 4.50536 34.8727 6.52536 36.9047C8.54336 38.9357 10.8024 40.4797 13.2334 41.4957C15.6644 42.5067 18.3444 43.0207 21.2014 43.0207C26.1114 43.0207 29.7964 40.9297 32.2104 39.0277C32.4764 38.8247 32.6944 38.9347 32.6944 39.2667V41.2757C32.6944 41.6537 33.0034 41.9627 33.3804 41.9627H40.6754C41.0534 41.9607 41.3594 41.6537 41.3604 41.2757V34.5087C44.7994 42.5957 53.5624 43.0247 57.8524 43.0247C65.0244 43.0247 73.2944 40.7157 74.9354 33.6337C75.7244 34.8057 76.6244 35.8997 77.6224 36.8997C81.5324 40.8347 86.6564 42.9507 92.4464 43.0137H92.6834C95.4334 43.0137 98.0864 42.4857 100.569 41.4427C103.075 40.3827 105.348 38.8387 107.257 36.8997C108.685 35.4757 109.905 33.8577 110.88 32.0917C113.48 42.5177 123.495 43.0257 128.177 43.0257ZM113.115 18.7867C114.834 21.0797 117.937 22.7767 122.978 23.9117C127.696 25.0407 135.883 25.7587 135.883 30.6027C135.883 33.9797 133.394 36.3637 128.689 36.2847C124.944 36.2847 120.813 34.9537 119.863 29.8027C119.784 29.3107 119.552 29.1077 119.173 29.0977L112.234 29.0047C112.967 26.8457 113.34 24.5067 113.34 22.0347C113.339 20.9477 113.264 19.8627 113.115 18.7867ZM21.0624 35.3137C15.0204 35.3137 9.48536 30.5577 9.48536 22.0387C9.48536 15.3537 13.6354 8.87673 21.1024 8.87673C24.3374 8.87673 32.5384 9.98473 32.5384 22.0387C32.5384 34.1237 23.9764 35.3137 21.0624 35.3137ZM58.3644 36.2827C54.6184 36.2827 50.4904 34.9517 49.5394 29.8017C49.4584 29.3097 49.2264 29.1067 48.8494 29.0957L41.3604 28.9957V15.7577C42.3444 19.6377 45.6044 22.3227 52.6544 23.9097C57.3724 25.0397 65.5584 25.7567 65.5584 30.6017C65.5584 33.9787 63.0724 36.3617 58.3644 36.2827ZM71.5394 22.0327C71.5394 22.2127 71.5474 22.3887 71.5524 22.5657C68.2154 19.5277 63.3894 18.3977 60.4414 17.8077C54.9864 16.6567 50.8194 15.6047 50.8194 11.7207C50.8194 8.98073 53.2724 6.98773 57.9864 7.32873C62.2934 7.64173 64.1074 10.2747 64.6044 12.8157C64.6764 13.2327 64.8684 13.5357 65.3434 13.5397L73.0894 13.6057C73.1264 13.6057 73.1584 13.6017 73.1914 13.5997C72.0984 16.1467 71.5394 18.9827 71.5394 22.0327ZM100.746 31.7877C98.5704 34.1227 95.7754 35.3087 92.4404 35.3087C89.1034 35.3087 86.3084 34.1227 84.1334 31.7877C82.0554 29.5627 80.8614 26.0067 80.8614 22.0327C80.8614 18.1547 82.0684 14.6467 84.1684 12.4067C86.3664 10.0717 89.1484 8.88073 92.4374 8.87173C95.7314 8.88073 98.5134 10.0717 100.71 12.4067C102.812 14.6467 104.017 18.1547 104.017 22.0327C104.017 26.0067 102.824 29.5627 100.746 31.7877Z" fill="#222222"/>
</svg>
