<svg width="218" height="60" viewBox="0 0 218 60" fill="none" xmlns="http://www.w3.org/2000/svg">
<path fill-rule="evenodd" clip-rule="evenodd" d="M203.168 14.8905C201.768 15.7175 200.897 17.2085 200.501 18.7505C199.939 20.9825 199.597 23.3335 200.032 25.6175C200.24 26.6815 200.744 27.7735 201.707 28.3485C202.436 28.7815 203.346 28.6865 204.109 28.3965C205.035 28.0365 205.891 27.4785 206.568 26.7485C207.91 25.3215 208.637 23.4415 209.087 21.5635C209.583 19.4085 209.759 17.1845 209.708 14.9755C209.15 14.7045 208.542 14.5585 207.945 14.4055C206.364 14.0605 204.6 14.0435 203.168 14.8905M211.404 0.586496C213.386 0.506496 215.368 0.421496 217.35 0.333496C216.259 11.2025 215.175 22.0725 214.092 32.9415C212.065 32.9525 210.039 32.9745 208.012 32.9905C208.092 31.9745 208.168 30.9575 208.254 29.9425C208.284 29.6995 208.226 29.4585 208.17 29.2245C207.09 30.6835 205.69 31.9265 204.022 32.6695C202.101 33.5415 199.837 33.6735 197.843 32.9675C196.266 32.3765 195.202 30.9375 194.561 29.4355C193.613 27.2105 193.362 24.7415 193.507 22.3445C193.654 20.1645 194.155 17.9975 195.071 16.0085C195.824 14.3775 196.875 12.8595 198.261 11.7015C199.781 10.4135 201.692 9.5525 203.693 9.4195C205.989 9.2595 208.314 9.9165 210.266 11.1165C210.311 11.0605 210.4 10.9515 210.446 10.8955C210.758 7.4585 211.085 4.0235 211.404 0.586496" fill="#222222"/>
<path fill-rule="evenodd" clip-rule="evenodd" d="M8.47541 19.8607C8.22841 22.4627 7.98141 25.0647 7.73041 27.6667C7.70241 27.8057 7.72241 28.0537 7.91441 28.0437C9.93541 28.0517 11.9574 28.0507 13.9774 28.0437C14.8364 27.9247 15.7754 27.8107 16.4504 27.2117C17.2714 26.5087 17.7194 25.4897 18.0814 24.4957C18.3604 23.7437 18.4564 22.8957 18.1934 22.1257C17.9304 21.3257 17.2984 20.7137 16.6214 20.2477C16.2764 20.0387 15.9134 19.7907 15.4934 19.8037C13.2054 19.7737 10.9194 19.7387 8.63341 19.7037C8.59341 19.7417 8.51441 19.8207 8.47541 19.8607M9.72041 7.18065C9.49741 9.53565 9.27341 11.8897 9.04641 14.2437C9.08541 14.2827 9.16341 14.3607 9.20241 14.3997C10.8294 14.3987 12.4574 14.3957 14.0854 14.4007C14.9074 14.4407 15.7384 14.2527 16.4794 13.9007C17.5654 13.3037 18.1064 12.0957 18.3834 10.9437C18.6384 10.0097 18.6414 8.91265 18.0144 8.11965C17.4564 7.43565 16.6244 6.88065 15.7124 6.91265C13.8304 6.89265 11.9504 6.85865 10.0674 6.83165C9.86141 6.78565 9.71241 6.99165 9.72041 7.18065M4.11941 1.92065C8.09241 1.94165 12.0644 1.95265 16.0374 1.96965C17.7254 1.93365 19.4194 2.25265 20.9874 2.87065C22.1834 3.36765 23.3584 4.07265 24.0964 5.16765C24.8714 6.27465 25.1334 7.67465 25.0074 9.00465C24.9044 10.8297 24.3624 12.6747 23.2124 14.1197C22.6484 14.8567 21.9124 15.4397 21.1364 15.9407C20.7954 16.1627 20.4394 16.3747 20.1804 16.6957C20.4334 16.9577 20.7254 17.1767 21.0294 17.3767C22.0474 18.0597 23.0354 18.8467 23.6844 19.9057C24.5504 21.2407 24.7994 22.9097 24.5274 24.4627C24.1674 26.5207 23.2294 28.5217 21.6864 29.9557C19.2914 32.1347 15.9584 32.9767 12.7844 32.9597C8.73941 32.9267 4.69441 32.9197 0.649414 32.9027C1.80541 22.5757 2.96341 12.2477 4.11941 1.92065" fill="#222222"/>
<path fill-rule="evenodd" clip-rule="evenodd" d="M36.8862 15.972C35.8322 17.045 35.3302 18.507 34.9922 19.94C34.5762 21.637 34.3292 23.405 34.5512 25.15C34.6722 25.97 34.9162 26.801 35.4372 27.459C35.8632 28.007 36.4752 28.433 37.1752 28.525C38.1842 28.663 39.1962 28.313 40.0712 27.829C41.4762 26.963 42.3382 25.467 42.9172 23.964C43.9912 21.123 44.3322 18.07 44.4792 15.055C44.3682 14.978 44.2612 14.892 44.1332 14.849C42.9252 14.405 41.6182 14.2 40.3342 14.321C39.0322 14.423 37.7712 15.008 36.8862 15.972M38.4922 9.644C40.4332 9.326 42.4202 9.394 44.3612 9.665C46.6372 10.21 48.9102 10.775 51.1862 11.324C50.3592 18.514 49.5262 25.701 48.6972 32.891C46.7082 32.88 44.7192 32.855 42.7302 32.853C42.8532 31.693 42.9482 30.53 43.0712 29.369C43.0242 29.31 42.9332 29.194 42.8872 29.135C41.5232 30.815 39.7612 32.225 37.7162 32.972C35.9382 33.624 33.8642 33.619 32.1892 32.675C30.6162 31.828 29.5612 30.266 28.9612 28.619C28.0622 26.128 28.0762 23.386 28.6122 20.816C29.1672 18.084 30.1112 15.341 31.9252 13.177C33.5622 11.216 35.9922 10.035 38.4922 9.644" fill="#222222"/>
<path fill-rule="evenodd" clip-rule="evenodd" d="M68.9359 9.95739C70.7619 9.32339 72.8729 9.20939 74.6459 10.0644C75.9709 10.6944 76.7749 12.0374 77.1749 13.4004C77.8249 15.6264 77.7509 17.9844 77.5749 20.2724C77.1789 24.5244 76.6989 28.7694 76.1459 33.0034C74.1429 32.9824 72.1389 32.9574 70.1369 32.9374C70.4839 30.0634 70.8329 27.1884 71.1439 24.3094C71.3639 22.2844 71.6029 20.2594 71.7369 18.2274C71.8549 16.8534 71.2149 15.4204 70.0769 14.6324C69.4229 14.1754 68.5349 14.1414 67.8219 14.4794C67.1139 14.8044 66.5389 15.3494 66.0249 15.9224C65.1589 16.9164 64.5069 18.0734 63.9179 19.2454C63.1649 21.0624 62.8789 23.0284 62.6399 24.9674C62.3559 27.6554 62.0539 30.3404 61.8019 33.0324C59.8009 32.9854 57.7979 32.9324 55.7969 32.8974C56.5969 25.2354 57.4049 17.5744 58.1899 9.90939C60.2139 9.87439 62.2379 9.84239 64.2619 9.79539C64.1019 10.9094 63.9809 12.0304 63.8299 13.1454C63.8169 13.3274 63.7429 13.5384 63.8879 13.6884C63.9949 13.6154 64.0909 13.5254 64.1769 13.4264C65.4139 11.8754 67.0659 10.6354 68.9359 9.95739" fill="#222222"/>
<path fill-rule="evenodd" clip-rule="evenodd" d="M152.517 14.1322C151.42 14.3812 150.527 15.1392 149.815 15.9762C148.663 17.3642 148.005 19.1342 147.886 20.9302C147.772 22.6322 147.495 24.3692 147.897 26.0542C148.117 27.0182 148.686 27.9492 149.585 28.4112C150.418 28.8352 151.379 28.7002 152.279 28.7162C153.434 28.7142 154.521 28.1422 155.332 27.3472C156.677 26.0812 157.443 24.2932 157.667 22.4772C157.85 20.9202 158.187 19.3532 157.984 17.7802C157.855 16.7272 157.474 15.6532 156.672 14.9242C156.09 14.3422 155.263 14.0532 154.448 14.0502C153.804 14.0542 153.151 13.9992 152.517 14.1322M152.625 9.58219C154.741 9.42219 156.94 9.39119 158.958 10.1392C160.603 10.7362 162.098 11.8352 163.007 13.3492C164.106 15.1082 164.42 17.2612 164.195 19.3002C164.039 20.6712 163.93 22.0492 163.74 23.4152C163.408 25.6742 162.368 27.8092 160.857 29.5132C158.726 31.9052 155.587 33.3992 152.374 33.4262C151.22 33.4242 150.058 33.4702 148.913 33.2942C147.014 33.0172 145.169 32.1902 143.802 30.8252C142.45 29.4602 141.64 27.6102 141.421 25.7092C141.225 24.1522 141.484 22.5902 141.594 21.0362C141.76 18.8142 142.463 16.6172 143.732 14.7772C145.733 11.8372 149.115 9.96419 152.625 9.58219" fill="#222222"/>
<path fill-rule="evenodd" clip-rule="evenodd" d="M178.656 14.117C178.033 14.247 177.456 14.547 176.957 14.934C175.566 16.028 174.635 17.635 174.206 19.338C173.993 20.15 173.955 20.992 173.886 21.825C173.767 23.314 173.612 24.852 174.038 26.31C174.288 27.196 174.863 28.021 175.702 28.432C176.512 28.827 177.44 28.7 178.312 28.717C179.494 28.724 180.606 28.138 181.432 27.32C182.765 26.049 183.523 24.264 183.74 22.453C183.924 20.909 184.257 19.356 184.056 17.796C183.932 16.755 183.562 15.691 182.781 14.959C182.208 14.376 181.398 14.065 180.586 14.053C179.942 14.051 179.291 14.004 178.656 14.117M178.36 9.624C179.456 9.473 180.567 9.482 181.672 9.512C183.704 9.571 185.767 10.167 187.379 11.437C188.918 12.633 189.888 14.469 190.198 16.376C190.38 17.455 190.363 18.555 190.231 19.638C190.079 20.94 189.985 22.25 189.79 23.547C189.19 27.344 186.6 30.749 183.107 32.351C181.613 33.055 179.962 33.426 178.311 33.428C177.186 33.425 176.052 33.466 174.937 33.288C173.072 33.005 171.26 32.194 169.908 30.861C168.563 29.516 167.741 27.696 167.507 25.818C167.286 24.234 167.55 22.641 167.662 21.061C167.824 18.893 168.488 16.747 169.698 14.933C171.62 12.002 174.91 10.09 178.36 9.624" fill="#222222"/>
<path fill-rule="evenodd" clip-rule="evenodd" d="M164.219 44.8553C166.131 44.6613 168.065 45.0223 169.853 45.7013C169.746 46.5443 169.635 47.3863 169.528 48.2303C168.101 47.7343 166.571 47.5443 165.065 47.6763C163.427 47.7463 162.005 48.9603 161.437 50.4593C160.948 51.7013 160.966 53.0913 161.273 54.3753C161.527 55.3253 162.413 55.9753 163.339 56.1903C165.024 56.5783 166.773 56.2623 168.424 55.8513C168.489 56.6593 168.555 57.4673 168.621 58.2743C166.63 58.8393 164.542 59.1953 162.47 58.9743C161.162 58.8253 159.813 58.3643 158.916 57.3573C157.762 56.0373 157.309 54.2263 157.374 52.5023C157.437 50.4903 158.178 48.4713 159.576 47.0023C160.795 45.7513 162.494 45.0333 164.219 44.8553" fill="#222222"/>
<path fill-rule="evenodd" clip-rule="evenodd" d="M179.225 47.4866C178.142 47.7736 177.378 48.7276 176.915 49.7006C176.388 50.7736 176.406 51.9916 176.321 53.1566C176.288 54.0956 176.398 55.1756 177.16 55.8306C177.669 56.3116 178.42 56.2376 179.068 56.2376C179.983 56.2446 180.78 55.6606 181.322 54.9656C181.914 54.2336 182.231 53.3146 182.347 52.3866C182.489 51.2996 182.714 50.1726 182.394 49.0956C182.169 48.3046 181.521 47.5766 180.679 47.4656C180.196 47.4196 179.703 47.4016 179.225 47.4866M179.127 44.8896C180.004 44.7936 180.895 44.7846 181.773 44.8876C182.901 45.0376 184.014 45.4956 184.83 46.3056C185.777 47.2776 186.21 48.6676 186.159 50.0086C186.103 50.9936 185.98 51.9726 185.868 52.9526C185.546 55.4156 183.803 57.6286 181.472 58.4976C180.265 58.9906 178.939 58.9836 177.659 58.9286C176.463 58.8586 175.269 58.4486 174.347 57.6706C173.46 56.9196 172.912 55.8196 172.723 54.6836C172.535 53.6056 172.723 52.5146 172.807 51.4376C172.964 49.7526 173.681 48.1066 174.893 46.9126C176.037 45.8056 177.552 45.1006 179.127 44.8896" fill="#222222"/>
<path fill-rule="evenodd" clip-rule="evenodd" d="M197.325 45.3783C198.182 44.9463 199.157 44.6753 200.12 44.8193C201.023 44.9433 201.902 45.4243 202.393 46.2093C202.678 46.6113 202.798 47.0983 203.056 47.5163C204.206 46.3123 205.632 45.2593 207.295 44.9303C208.397 44.7563 209.639 44.8273 210.559 45.5233C211.197 46.0433 211.491 46.8603 211.653 47.6433C211.961 49.2473 211.756 50.8863 211.632 52.4993C211.478 54.5593 211.245 56.6123 210.998 58.6633C209.884 58.6633 208.772 58.6613 207.658 58.6643C207.862 55.7453 208.037 52.8243 208.234 49.9043C208.27 49.1403 208.087 48.2633 207.45 47.7713C207.05 47.4503 206.49 47.5213 206.049 47.7073C204.673 48.2843 203.658 49.5593 203.27 50.9853C202.908 52.1293 202.834 53.3333 202.7 54.5183C202.583 55.8853 202.469 57.2523 202.357 58.6203C201.23 58.6433 200.102 58.6743 198.976 58.7223C199.162 56.0343 199.349 53.3453 199.517 50.6563C199.526 49.6553 199.455 48.4853 198.663 47.7663C198.259 47.3733 197.625 47.4683 197.173 47.7173C195.861 48.4193 195.012 49.7593 194.616 51.1633C194.288 52.2273 194.211 53.3433 194.073 54.4413C193.909 55.8863 193.726 57.3293 193.576 58.7763C192.458 58.7253 191.338 58.7063 190.221 58.6653C190.598 54.1223 190.984 49.5783 191.346 45.0333C192.511 45.0653 193.677 45.0883 194.843 45.1063C194.837 45.6873 194.801 46.2713 194.815 46.8533C194.842 46.9243 194.894 47.0683 194.921 47.1393C195.631 46.4393 196.439 45.8363 197.325 45.3783" fill="#222222"/>
<path fill-rule="evenodd" clip-rule="evenodd" d="M93.1878 14.5565C91.6658 15.0225 90.4518 16.2295 89.7628 17.6395C88.9158 19.3755 88.4118 21.2855 88.3398 23.2175C88.3168 24.4435 88.4278 25.7205 89.0068 26.8245C89.4648 27.6965 90.3018 28.4384 91.3148 28.5234C92.6678 28.6364 94.0318 28.0574 94.9748 27.0984C96.2728 25.8294 96.9678 24.0974 97.4668 22.3864C98.1528 19.9674 98.4038 17.4495 98.4888 14.9435C98.3628 14.8405 98.2228 14.7535 98.0638 14.7135C96.4998 14.2125 94.7728 14.0515 93.1878 14.5565M88.8108 10.9474C90.7868 9.96045 93.0358 9.66545 95.2228 9.68245C98.6178 9.73745 101.976 10.4734 105.178 11.5754C104.552 16.1665 103.879 20.7564 103.542 25.3794C103.378 27.5474 103.346 29.7324 102.98 31.8804C102.667 33.7954 102.125 35.6984 101.147 37.3864C100.159 39.1154 98.7058 40.5725 96.9838 41.5725C95.2538 42.4895 93.2548 42.7074 91.3248 42.7234C88.2948 42.7074 85.2898 42.1625 82.3668 41.3925C82.8028 39.9665 83.1818 38.5234 83.5958 37.0924C86.2568 37.9204 89.0868 38.1255 91.8578 37.9035C92.8498 37.8665 93.8668 37.5894 94.6348 36.9354C95.7798 36.0274 96.4378 34.6505 96.7848 33.2575C97.0848 32.0725 97.1908 30.8435 97.1968 29.6215C97.2188 29.4225 97.1348 29.2445 97.0448 29.0735C95.9238 30.4135 94.5928 31.6015 93.0478 32.4305C91.6038 33.2135 89.9128 33.6294 88.2748 33.3524C86.9378 33.1224 85.6788 32.4865 84.6678 31.5875C83.3878 30.3774 82.6928 28.6715 82.3838 26.9655C81.9358 24.3535 82.2298 21.6555 82.9818 19.1274C83.5958 17.1095 84.5088 15.1614 85.8158 13.4964C86.6258 12.4554 87.6308 11.5484 88.8108 10.9474" fill="#222222"/>
<path fill-rule="evenodd" clip-rule="evenodd" d="M123.494 15.6932C122.389 16.6632 121.775 18.0432 121.314 19.4082C120.711 21.2462 120.431 23.2212 120.734 25.1432C120.924 26.3142 121.456 27.5152 122.498 28.1612C123.385 28.7062 124.505 28.6012 125.444 28.2582C126.44 27.9182 127.251 27.1932 127.89 26.3762C128.651 25.3912 129.143 24.2322 129.536 23.0592C130.381 20.4342 130.672 17.6662 130.761 14.9212C130.188 14.5802 129.509 14.4912 128.867 14.3602C127.006 14.0422 124.911 14.3622 123.494 15.6932M125.036 9.81523C127.779 9.48323 130.557 9.80423 133.245 10.3842C134.671 10.6962 136.077 11.0932 137.454 11.5772C136.73 16.8112 135.968 22.0492 135.689 27.3322C135.549 30.0602 135.307 32.8312 134.347 35.4122C133.405 38.0062 131.569 40.2942 129.141 41.6332C127.181 42.6172 124.927 42.7682 122.77 42.7092C120.024 42.5972 117.304 42.1032 114.653 41.3912C115.063 39.9582 115.465 38.5232 115.869 37.0882C118.76 37.9932 121.851 38.1612 124.851 37.8322C126.329 37.6492 127.556 36.5912 128.26 35.3212C129.273 33.4692 129.486 31.3022 129.47 29.2252C129.401 29.2182 129.266 29.2052 129.199 29.1982C128.007 30.6372 126.531 31.8652 124.84 32.6722C123.254 33.4272 121.388 33.6932 119.694 33.1502C118.268 32.6882 116.921 31.8352 116.075 30.5762C115.046 29.0912 114.604 27.2822 114.48 25.5002C114.272 22.0342 115.125 18.5282 116.777 15.4842C117.683 13.8642 118.85 12.3292 120.433 11.3192C121.814 10.4472 123.429 10.0212 125.036 9.81523" fill="#222222"/>
<path fill-rule="evenodd" clip-rule="evenodd" d="M128.463 48.6063C127.784 48.9283 127.099 49.2383 126.412 49.5403C121.794 51.5443 116.983 53.1523 112.02 54.0393C108.632 54.6323 105.154 54.8423 101.738 54.3623C98.2791 53.8963 94.9131 52.8903 91.6731 51.6103C88.8291 50.4733 86.0631 49.1343 83.4111 47.5983C82.8811 47.2913 82.3271 47.9763 82.7391 48.4293C84.3381 50.1853 86.1001 51.7933 87.9841 53.2383C90.7571 55.3433 93.8321 57.0763 97.1331 58.1993C100.446 59.3413 103.983 59.8333 107.482 59.6163C112.614 59.3523 117.669 57.7993 122.082 55.1663C124.675 53.6283 127.059 51.7383 129.152 49.5693C129.621 49.0843 129.072 48.3173 128.463 48.6063" fill="#222222"/>
<path fill-rule="evenodd" clip-rule="evenodd" d="M142.015 55.9364C142.615 55.7454 143.387 55.9764 143.658 56.5784C143.98 57.2034 143.781 58.1104 143.12 58.4274C142.464 58.7834 141.489 58.5394 141.21 57.8104C140.886 57.1114 141.229 56.1304 142.015 55.9364" fill="#222222"/>
</svg>
