<svg width="139" height="70" viewBox="0 0 139 70" fill="none" xmlns="http://www.w3.org/2000/svg">
<path fill-rule="evenodd" clip-rule="evenodd" d="M41.0325 49.875C35.4838 49.875 30.9697 54.3886 30.9697 59.9375C30.9697 65.4858 35.4838 70 41.0325 70C46.5813 70 51.0947 65.4858 51.0947 59.9375C51.0947 54.3886 46.5813 49.875 41.0325 49.875" fill="#222222"/>
<path fill-rule="evenodd" clip-rule="evenodd" d="M13.0319 49.875C7.48316 49.875 2.96973 54.3886 2.96973 59.9375C2.96973 65.4858 7.48316 70 13.0319 70C18.58 70 23.0947 65.4858 23.0947 59.9375C23.0947 54.3886 18.58 49.875 13.0319 49.875" fill="#222222"/>
<path fill-rule="evenodd" clip-rule="evenodd" d="M69.9075 49.875C64.3582 49.875 59.8447 54.3886 59.8447 59.9375C59.8447 65.4858 64.3582 70 69.9075 70C75.4556 70 79.9697 65.4858 79.9697 59.9375C79.9697 54.3886 75.4556 49.875 69.9075 49.875" fill="#222222"/>
<path fill-rule="evenodd" clip-rule="evenodd" d="M126.782 49.875C121.233 49.875 116.72 54.3886 116.72 59.9375C116.72 65.4858 121.233 70 126.782 70C132.331 70 136.845 65.4858 136.845 59.9375C136.845 54.3886 132.331 49.875 126.782 49.875" fill="#222222"/>
<path fill-rule="evenodd" clip-rule="evenodd" d="M98.7832 49.875C93.2345 49.875 88.7197 54.3889 88.7197 59.9375C88.7197 65.4868 93.2338 70 98.7825 70C104.331 70 108.845 65.4868 108.845 59.9375C108.845 54.3889 104.332 49.875 98.7832 49.875" fill="#222222"/>
<path fill-rule="evenodd" clip-rule="evenodd" d="M0.344727 20.427C0.344727 13.7731 5.82042 8.75 12.5951 8.75C19.4156 8.75 24.8447 13.7284 24.8447 20.3816V30.6101C24.8447 31.6507 24.1029 32.375 22.9887 32.375C21.8287 32.375 21.1327 31.6507 21.1327 30.6101V27.6229H20.9472C19.5086 30.0213 16.6315 32.1033 12.3624 32.1033C5.77388 32.1033 0.344727 27.1249 0.344727 20.427ZM21.2257 20.427C21.2257 15.6295 17.513 12.0088 12.5951 12.0088C7.67578 12.0088 3.96372 15.6295 3.96372 20.427C3.96372 25.2238 7.67578 28.8451 12.5951 28.8451C17.513 28.8451 21.2257 25.2238 21.2257 20.427Z" fill="#222222"/>
<path fill-rule="evenodd" clip-rule="evenodd" d="M33.0783 39.6332C32.1038 39.181 31.6391 38.3667 32.0107 37.4177C32.3823 36.4221 33.3103 36.0159 34.2841 36.4681C35.9552 37.2363 38.0425 37.7792 40.2693 37.7792C45.7919 37.7792 49.1322 34.5688 49.1322 29.0976V27.6051H48.9461C47.5076 30.0019 44.632 32.0813 40.3624 32.0813C33.7736 32.0813 28.3447 27.1076 28.3447 20.416C28.3447 13.769 33.8201 8.75 40.5951 8.75C47.4159 8.75 52.8447 13.7243 52.8447 20.3706V28.8715C52.8447 36.1967 48.0181 41.125 40.1304 41.125C37.7181 41.125 35.3051 40.6728 33.0783 39.6332ZM49.2246 20.416C49.2246 15.623 45.5127 12.0051 40.5951 12.0051C35.6767 12.0051 31.9649 15.623 31.9649 20.416C31.9649 25.2089 35.6767 28.8262 40.5951 28.8262C45.5127 28.8262 49.2246 25.2089 49.2246 20.416Z" fill="#222222"/>
<path fill-rule="evenodd" clip-rule="evenodd" d="M57.2197 20.5628C57.2197 13.8316 62.6494 8.75 69.4704 8.75C76.2907 8.75 81.7197 13.8316 81.7197 20.5628C81.7197 27.2928 76.2907 32.375 69.4704 32.375C62.6494 32.375 57.2197 27.2928 57.2197 20.5628ZM78.1008 20.5628C78.1008 15.7095 74.3882 12.0468 69.4704 12.0468C64.5512 12.0468 60.8393 15.7095 60.8393 20.5628C60.8393 25.4155 64.5512 29.0789 69.4704 29.0789C74.3882 29.0789 78.1008 25.4155 78.1008 20.5628Z" fill="#222222"/>
<path fill-rule="evenodd" clip-rule="evenodd" d="M86.0947 20.7583C86.0947 14.1384 91.4767 9.14089 98.1124 9.14089C102.382 9.14089 105.259 11.2123 106.697 13.5984H106.883V1.75593C106.883 0.720564 107.625 0 108.739 0C109.899 0 110.595 0.720564 110.595 1.75593V20.8028C110.595 27.422 105.166 32.375 98.3451 32.375C91.5704 32.375 86.0947 27.3769 86.0947 20.7583ZM106.976 20.7583C106.976 15.9853 103.263 12.3831 98.3451 12.3831C93.4258 12.3831 89.7137 15.9853 89.7137 20.7583C89.7137 25.5306 93.4258 29.1334 98.3451 29.1334C103.263 29.1334 106.976 25.5306 106.976 20.7583Z" fill="#222222"/>
<path fill-rule="evenodd" clip-rule="evenodd" d="M114.095 20.427C114.095 13.7731 119.57 8.75 126.345 8.75C133.166 8.75 138.595 13.7284 138.595 20.3816V30.6101C138.595 31.6507 137.852 32.375 136.739 32.375C135.578 32.375 134.882 31.6507 134.882 30.6101V27.6229H134.697C133.258 30.0213 130.382 32.1033 126.113 32.1033C119.524 32.1033 114.095 27.1249 114.095 20.427ZM134.975 20.427C134.975 15.6295 131.263 12.0088 126.345 12.0088C121.426 12.0088 117.714 15.6295 117.714 20.427C117.714 25.2238 121.426 28.8451 126.345 28.8451C131.263 28.8451 134.975 25.2238 134.975 20.427Z" fill="#222222"/>
</svg>
