<svg width="196" height="44" viewBox="0 0 196 44" fill="none" xmlns="http://www.w3.org/2000/svg">
<path fill-rule="evenodd" clip-rule="evenodd" d="M91.206 34.9945C89.637 36.7175 87.797 37.0935 85.947 36.3045C84.064 35.5015 82.995 33.7665 83.231 31.4335C83.662 27.1875 85.25 23.3735 88.029 20.1225C89.59 18.2955 91.529 17.8135 93.393 18.5495C95.22 19.2695 96.22 21.0195 96.159 23.9265C95.602 27.7345 94.189 31.7195 91.206 34.9945M96.214 12.6945C90.438 10.2385 84.78 11.2235 80.483 15.6215C76.831 19.3595 74.884 23.9115 74.798 29.1615C74.665 37.2725 80.854 43.5005 88.988 43.5275C92.367 43.5395 95.097 42.6405 97.661 40.4735C102.14 36.6875 104.374 31.7365 104.626 25.9575C104.889 19.9105 101.667 15.0135 96.214 12.6945" fill="#222222"/>
<path fill-rule="evenodd" clip-rule="evenodd" d="M175.417 13.163C173.813 11.994 172.011 11.319 169.999 11.337C166.094 11.372 162.8 12.757 160.132 16.141C159.852 14.471 159.623 13.107 159.391 11.722C163.605 9.919 167.629 8.198 171.805 6.412C170.874 4.222 169.999 2.163 169.08 0C162.804 2.67 156.735 5.251 150.561 7.878C151.826 13.665 153.059 19.309 154.326 25.105C155.914 24.431 157.211 23.849 158.532 23.327C160.271 22.64 161.885 21.99 162.917 20.135C163.867 18.426 166.387 17.869 168.097 18.488C169.811 19.109 171.178 21.303 171.176 23.431C171.175 25.325 170.095 26.712 168.058 27.461C166 28.216 164.258 27.651 162.706 26.131C160.125 27.226 157.566 28.313 154.815 29.481C156.471 32.384 158.65 34.296 161.671 34.814C167.751 35.857 172.982 33.823 177.193 29.515C182.492 24.092 179.395 16.064 175.417 13.163" fill="#222222"/>
<path fill-rule="evenodd" clip-rule="evenodd" d="M21.033 18.3397C16.545 17.5577 12.731 19.0297 9.485 22.8487C9.218 21.2367 8.998 19.9107 8.759 18.4647C12.948 16.6977 17.024 14.9787 21.25 13.1947C20.328 10.9927 19.463 8.92571 18.56 6.77271C12.271 9.40371 6.196 11.9457 0 14.5377C1.231 20.3517 2.429 26.0107 3.653 31.7917C6.313 30.6857 8.776 29.6617 11.171 28.6657C12.714 25.4567 15.509 24.1717 17.921 25.4927C20.224 26.7547 21.237 30.1937 19.933 32.3237C18.377 34.8637 15.105 35.1397 11.907 32.8987C9.4 33.9627 6.818 35.0587 4.221 36.1607C6.022 39.6377 8.961 41.6587 12.688 41.8047C18.088 42.0147 22.804 40.1937 26.558 36.2977C29.427 33.3177 29.935 29.6737 28.706 25.7947C27.491 21.9537 25.174 19.0617 21.033 18.3397" fill="#222222"/>
<path fill-rule="evenodd" clip-rule="evenodd" d="M71.5294 2.68835C68.6574 6.41835 65.0744 7.25935 60.7654 5.86935C59.9714 7.75835 59.2154 9.55935 58.4394 11.4034C60.4454 12.2704 62.2574 13.0544 64.2434 13.9124C61.8864 19.5224 59.6024 24.9594 57.2544 30.5514C60.0514 31.7364 62.6544 32.8404 65.4704 34.0344C69.5814 24.3014 73.5814 14.8274 77.6314 5.23835C75.4644 4.33335 73.4934 3.50935 71.5294 2.68835" fill="#222222"/>
<path fill-rule="evenodd" clip-rule="evenodd" d="M136.215 13.6879C135.642 16.0889 135.536 18.1789 134.636 19.8379C133.734 21.5019 132.041 22.7369 130.536 24.3279C131.165 25.7859 131.923 27.5399 132.73 29.4069C134.757 28.5829 136.624 27.8229 138.584 27.0259C140.987 32.6489 143.303 38.0679 145.672 43.6099C148.493 42.4069 151.09 41.2989 153.875 40.1119C149.768 30.4509 145.728 20.9479 141.65 11.3569C139.489 12.2839 137.568 13.1079 136.215 13.6879" fill="#222222"/>
<path fill-rule="evenodd" clip-rule="evenodd" d="M41.7811 30.1185C38.6611 30.1145 36.2501 32.5365 36.2761 35.6495C36.3021 38.6395 38.7591 41.0435 41.7751 41.0285C44.7981 41.0135 47.1831 38.6035 47.1791 35.5675C47.1761 32.5085 44.8131 30.1225 41.7811 30.1185" fill="#222222"/>
<path fill-rule="evenodd" clip-rule="evenodd" d="M189.451 29.4893C187.242 31.6163 185.131 33.6483 183.326 35.3863C185.334 37.4683 187.364 39.5743 189.148 41.4253C191.203 39.4513 193.31 37.4283 195.318 35.5013C193.306 33.4403 191.288 31.3713 189.451 29.4893" fill="#222222"/>
<path fill-rule="evenodd" clip-rule="evenodd" d="M108.882 40.9491H122.074C119.859 37.0531 117.745 33.3351 115.484 29.3601C113.236 33.3051 111.138 36.9881 108.882 40.9491" fill="#222222"/>
</svg>
