<svg width="168" height="56" viewBox="0 0 168 56" fill="none" xmlns="http://www.w3.org/2000/svg">
<path d="M0.118169 28.0062C0.116949 22.5524 1.73622 17.2213 4.77043 12.6895C7.80464 8.15768 12.117 4.62959 17.16 2.5531C22.203 0.476622 27.7492 -0.054622 33.0947 1.0268C38.4402 2.10823 43.3438 4.75363 47.1831 8.62706C51.0224 12.5005 53.6243 17.4273 54.6583 22.7821C55.6924 28.137 55.1121 33.6783 52.9911 38.7027C50.8701 43.7271 47.304 48.0081 42.7455 51.0021C38.187 53.9961 32.8417 55.5681 27.3882 55.5186C20.1322 55.4588 13.1941 52.5333 8.08594 47.3798C2.97779 42.2262 0.113791 35.2624 0.118169 28.0062V28.0062ZM16.3196 24.6063V20.4271C17.5067 20.2828 18.7071 20.2877 19.893 20.4417C20.2282 20.4741 20.5474 20.6007 20.8137 20.8068C21.0801 21.0128 21.2827 21.2901 21.3982 21.6065C21.5205 21.8287 21.6661 22.0373 21.8324 22.2288C22.6538 22.2288 23.4768 22.2464 24.2988 22.2237C25.107 22.2849 25.9196 22.2514 26.7201 22.1239V15.7904C21.3205 14.201 16.0087 14.7185 10.6806 15.763V29.4438C11.8752 29.4438 13.0066 29.4336 14.1377 29.4466C15.4373 29.4616 16.7517 29.5721 17.8192 28.5855C17.949 28.4952 18.0964 28.4337 18.2518 28.405C18.5591 28.2964 18.8848 28.2497 19.2102 28.2678C19.5356 28.2858 19.8542 28.3683 20.1476 28.5102C20.441 28.6521 20.7033 28.8508 20.9194 29.0948C21.1355 29.3387 21.3011 29.6231 21.4066 29.9314C21.7495 31.3098 21.7517 32.751 21.4132 34.1304C21.3231 34.4758 21.1518 34.7945 20.9137 35.0603C20.6756 35.3262 20.3774 35.5313 20.044 35.6587C19.6961 35.8236 19.3164 35.9108 18.9314 35.914C18.5463 35.9173 18.1652 35.8367 17.8145 35.6778C17.4638 35.5188 17.1519 35.2855 16.9005 34.9939C16.6492 34.7022 16.4643 34.3593 16.3589 33.989C16.0824 33.1371 15.6695 32.4519 14.7472 32.3123C13.3772 32.1766 11.9984 32.1533 10.6246 32.2423C10.6246 34.0493 10.6071 35.6989 10.6315 37.3478C10.6376 37.7649 10.7703 38.1702 11.012 38.5101C11.2538 38.85 11.5932 39.1084 11.9852 39.251C13.9372 40.2726 16.0647 40.9161 18.2556 41.1476C20.541 41.3657 22.83 40.7697 24.7188 39.4648C25.421 38.9886 26.0151 38.37 26.4624 37.6491C26.9098 36.9283 27.2004 36.1214 27.3153 35.2808C27.6224 33.3765 27.6343 31.4362 27.3507 29.5283C27.2454 28.6868 26.957 27.8786 26.5058 27.1606C26.0545 26.4426 25.4514 25.8322 24.7388 25.3724C23.5626 24.5633 22.1651 24.1375 20.7375 24.1534C19.2998 24.1918 17.8677 24.4386 16.3196 24.6063V24.6063ZM29.0531 27.9329C29.0531 30.0176 29.0531 32.1023 29.0531 34.187C29.0531 34.2656 29.0522 34.3444 29.0546 34.423C28.9942 35.7537 29.3668 37.0682 30.1164 38.1693C30.866 39.2705 31.9524 40.0991 33.2126 40.5309C35.9799 41.5074 39.0039 41.471 41.7469 40.4281C42.5914 40.143 43.3515 39.652 43.9586 38.9994C44.5656 38.3468 45.0005 37.5532 45.2238 36.6904C45.4961 35.6274 45.6436 34.5363 45.6633 33.4392C45.7283 31.1991 45.7002 28.9556 45.6777 26.7138C45.6579 24.7503 45.6436 22.7844 45.5362 20.8246C45.5123 19.5517 45.0711 18.322 44.2804 17.3242C43.4898 16.3265 42.3934 15.6159 41.1597 15.3017C38.7111 14.5081 36.0773 14.4895 33.6178 15.2485C32.4342 15.58 31.376 16.2564 30.5781 17.1914C29.542 18.4979 29.0051 20.1306 29.0637 21.797C29.0195 23.8415 29.0532 25.8876 29.0531 27.9329V27.9329Z" fill="#222222"/>
<path d="M91.19 25.8116H87.348C87.2565 24.1329 87.3144 22.5441 87.3094 20.8166H91.2308V14.8909C93.7284 14.6213 96.2461 14.5922 98.7492 14.8041C98.9053 15.7486 98.9448 16.7089 98.8669 17.6631C98.8977 18.6398 98.8737 19.6182 98.8737 20.7081H112.333C113.896 24.3649 115.432 27.9588 117.081 31.8159L121.608 20.8263H129.586C129.433 21.2121 129.325 21.5339 129.181 21.8391C126.035 28.5174 122.884 35.1939 119.73 41.8685C119.378 42.6146 118.99 43.3424 118.565 44.0491C118.164 44.7294 117.612 45.3092 116.953 45.7443C116.294 46.1794 115.544 46.4583 114.761 46.5599C112.245 46.8921 109.693 46.8509 107.188 46.4374C107.04 45.6854 107.001 44.9161 107.071 44.1529C107.044 43.4119 107.065 42.6693 107.065 41.821C107.484 41.7825 107.82 41.7485 108.156 41.7211C108.938 41.6574 109.723 41.6241 110.501 41.5275C110.876 41.4962 111.236 41.3669 111.545 41.1527C111.854 40.9384 112.102 40.6466 112.263 40.3065C112.521 39.7804 112.775 39.2521 113.045 38.6958C110.896 34.4009 108.755 30.1188 106.619 25.8493H98.9552V34.5171C99.0816 34.7292 99.2638 34.9026 99.4819 35.0183C99.7 35.134 99.9457 35.1877 100.192 35.1734C100.939 35.1773 101.685 35.1774 102.431 35.1786C102.854 35.1792 103.277 35.1786 103.784 35.1786V39.9035C103.327 40.02 102.861 40.1009 102.392 40.1454C100.282 40.3499 98.1592 40.3684 96.0467 40.2008C95.4625 40.1356 94.8826 40.0369 94.3097 39.9056C93.4791 39.7068 92.736 39.2426 92.193 38.5834C91.65 37.9242 91.3368 37.1059 91.3008 36.2526C91.2527 35.7055 91.2505 35.1533 91.2494 34.6033C91.2443 32.0866 91.2494 29.5699 91.2448 27.0532C91.2441 26.6701 91.2119 26.287 91.19 25.8116Z" fill="#222222"/>
<path d="M167.872 32.1572H149.421C149.488 32.8596 149.734 33.5332 150.135 34.1137C150.537 34.6941 151.08 35.1621 151.713 35.4731C152.955 36.1117 154.366 36.344 155.747 36.1373C157.128 35.9307 158.409 35.2955 159.41 34.3214C159.501 34.2412 159.597 34.1661 159.697 34.0967H167.517C167.408 34.9724 167.034 35.7939 166.445 36.4509C165.469 37.6931 164.19 38.6645 162.731 39.2724C160.959 40.0315 159.069 40.4787 157.144 40.5941C154.322 40.872 151.473 40.6464 148.729 39.9278C147.34 39.6252 146.04 39.0041 144.932 38.1133C143.824 37.2226 142.938 36.0865 142.344 34.7949C141.744 33.2957 141.468 31.6864 141.535 30.0729C141.482 28.0275 142.113 26.0229 143.328 24.3765C144.543 22.7301 146.272 21.536 148.242 20.9832C152.369 19.5825 156.84 19.5627 160.979 20.9268C162.958 21.5102 164.697 22.7158 165.938 24.3648C167.179 26.0138 167.855 28.0185 167.867 30.0821C167.898 30.707 167.872 31.3345 167.872 32.1572ZM160.037 28.0407C159.944 27.5128 159.747 27.0088 159.456 26.5584C159.166 26.1079 158.788 25.7201 158.346 25.4178C157.265 24.7725 156.031 24.4284 154.773 24.4213C153.514 24.4142 152.277 24.7444 151.189 25.3775C150.718 25.6578 150.319 26.0448 150.024 26.5073C149.729 26.9698 149.547 27.495 149.493 28.0407H160.037Z" fill="#222222"/>
<path d="M61.8135 33.8125H70.3086C70.3817 33.8951 70.5027 33.9701 70.5268 34.0687C70.6629 34.5673 70.9559 35.0088 71.3624 35.328C71.7688 35.6472 72.2672 35.8273 72.7839 35.8414C73.9398 36.0794 75.1315 36.0855 76.2899 35.8596C76.7125 35.7795 77.1171 35.623 77.4836 35.3978C77.6796 35.2971 77.8403 35.1391 77.9443 34.9448C78.0482 34.7505 78.0906 34.529 78.0657 34.3101C78.0408 34.0911 77.9498 33.885 77.8048 33.719C77.6599 33.553 77.4678 33.435 77.2542 33.3808C76.5442 33.1555 75.8125 33.0056 75.0711 32.9335C72.9306 32.6555 70.7848 32.4195 68.6424 32.1565C67.3505 32.0284 66.0908 31.676 64.92 31.115C64.2555 30.8131 63.6776 30.3487 63.2397 29.7647C62.8018 29.1806 62.518 28.4958 62.4144 27.7732C62.1708 26.5314 62.3349 25.2439 62.8822 24.1029C63.4296 22.9619 64.331 22.0284 65.4521 21.4413C67.0095 20.6799 68.7028 20.236 70.4334 20.1357C73.525 19.8091 76.6478 19.9398 79.7013 20.5234C80.9339 20.7792 82.1127 21.2469 83.1854 21.9058C83.9438 22.3609 84.5814 22.9919 85.0443 23.7455C85.5072 24.4991 85.7817 25.3533 85.8447 26.2355C83.0624 26.5746 80.2525 26.6253 77.4597 26.3871C77.0105 24.8318 75.6541 24.5851 74.3107 24.4668C73.4101 24.419 72.5069 24.4771 71.6198 24.6399C71.2423 24.671 70.8874 24.8331 70.6166 25.098C70.3457 25.3629 70.1759 25.714 70.1364 26.0908C70.1912 26.3649 70.3339 26.6137 70.5429 26.7994C70.7518 26.9852 71.0157 27.0978 71.2943 27.1202C72.3735 27.3143 73.4621 27.4607 74.5507 27.596C76.5752 27.8475 78.609 28.0326 80.6254 28.3353C81.5545 28.4862 82.4638 28.7405 83.3365 29.0931C87.6818 30.798 87.2129 36.2388 84.6754 38.2161C83.351 39.2109 81.8084 39.8753 80.1757 40.1542C77.082 40.7295 73.9202 40.8424 70.7934 40.4893C68.9895 40.3631 67.2193 39.9374 65.5553 39.2297C64.2657 38.7169 63.176 37.8018 62.448 36.6204C61.9292 35.7814 61.7059 34.793 61.8135 33.8125V33.8125Z" fill="#222222"/>
<path d="M138.462 39.877H131.114C130.866 38.958 130.81 15.642 131.049 14.2194H138.462V39.877Z" fill="#222222"/>
<path d="M34.6543 27.9572C34.6545 26.2695 34.6373 24.5816 34.6599 22.8941C34.6291 22.2265 34.8494 21.5715 35.2775 21.0581C35.7055 20.5448 36.3103 20.2104 36.9726 20.1208C37.6349 20.0312 38.3068 20.1927 38.8559 20.5738C39.405 20.9549 39.7915 21.5278 39.9392 22.1797C40.0362 22.6792 40.0844 23.187 40.0829 23.6959C40.096 26.561 40.0963 29.4262 40.0836 32.2914C40.0857 32.7609 40.0436 33.2296 39.9576 33.6911C39.8505 34.3147 39.5251 34.8797 39.0397 35.2854C38.5542 35.6911 37.9403 35.911 37.3077 35.9057C36.6525 35.8878 36.0259 35.6333 35.5438 35.1891C35.0618 34.7449 34.7569 34.1411 34.6855 33.4896C34.6451 32.9416 34.6349 32.3919 34.6551 31.8429C34.6519 30.5477 34.6541 29.2524 34.6543 27.9572Z" fill="#222222"/>
</svg>
