<svg xmlns="http://www.w3.org/2000/svg" width="234" height="23" viewBox="0 0 234 23">
    <g fill="none" fill-rule="evenodd">
        <g fill="#AAA">
            <g>
                <g>
                    <path d="M38.45 14.245c.161.14.249.346.24.56 0 .603-.35.904-1.046.904H31.65c-.46.028-.858-.323-.885-.784-.002-.028-.002-.057-.001-.086 0-.31.128-.604.353-.815L36.065 8.7h-3.83c-.25.017-.499-.055-.7-.205-.164-.145-.252-.357-.24-.576 0-.591.348-.887 1.046-.887h5.728c.242-.012.479.082.647.257.156.165.242.385.239.613-.006.312-.134.611-.354.833l-4.93 5.306h4.078c.25-.017.5.055.701.204M41.615 10.58h4.043c.053-.585-.111-1.17-.461-1.64-.34-.383-.837-.588-1.348-.559-1.253 0-1.997.733-2.234 2.2m5.72.984c-.14.137-.33.212-.524.204h-5.266c-.015.656.222 1.291.663 1.775.473.426 1.096.643 1.73.604.38.005.76-.046 1.126-.15.352-.109.689-.26 1.002-.454.135-.078.287-.12.443-.124.183-.008.36.075.47.222.115.157.175.347.168.541.002.34-.164.659-.443.852-.385.268-.814.467-1.268.586-.534.154-1.085.232-1.64.23-.805.019-1.602-.161-2.323-.523-.646-.332-1.179-.849-1.534-1.482-.372-.685-.559-1.457-.54-2.237-.015-.856.174-1.704.549-2.474.343-.703.878-1.293 1.543-1.704.684-.414 1.47-.627 2.27-.613 1.044-.064 2.064.331 2.793 1.083.705.868 1.057 1.97.984 3.088.014.212-.062.42-.204.576M56.46 7.608c.545.65.815 1.488.755 2.334 0 .224-.007.396-.02.515l-.354 4.294c-.008.298-.136.579-.355.78-.225.195-.518.296-.815.285-.293.018-.581-.085-.799-.284-.195-.21-.287-.497-.247-.781l.355-4.205c.094-1.314-.426-1.97-1.56-1.97-.57-.032-1.125.181-1.526.585-.393.455-.618 1.031-.638 1.633l-.337 3.957c-.008.298-.136.579-.355.78-.225.195-.518.296-.815.285-.29.019-.578-.084-.79-.284-.19-.213-.284-.497-.257-.781l.568-6.886c.001-.285.132-.556.354-.736.237-.187.533-.284.834-.275.275-.016.543.08.745.266.181.19.26.453.213.71l-.019.337c.302-.43.711-.773 1.189-.994.521-.241 1.091-.363 1.667-.354.814-.059 1.615.228 2.207.79M21.568 6.574c-.904-1.394-2.708-1.892-4.199-1.16-1.592.81-2.227 2.757-1.42 4.35.461.908 1.322 1.547 2.324 1.724-.122 3.84-3.332 6.856-7.171 6.734-3.728-.118-6.699-3.159-6.733-6.892-.006-2.876 1.78-5.45 4.476-6.448.518-.187.818-.73.698-1.269l-.008-.033c-.132-.59.238-1.174.826-1.307.048-.01.097-.018.146-.022.27-.025.543-.038.816-.038.338 0 .677.02 1.012.056.608.067 1.156-.373 1.221-.98.003-.02.005-.042.006-.062C13.578.624 13.12.113 12.52.063 12.122.02 11.722 0 11.323 0 5.07 0 0 5.074 0 11.332c0 6.259 5.07 11.331 11.323 11.331 6.254 0 11.323-5.072 11.323-11.331 0-1.108-.223-3.496-1.078-4.758" transform="translate(-119 -6209) translate(119 5833) translate(0 376)"/>
                    <path d="M15.594.86c.647 0 1.173.526 1.173 1.174 0 .648-.526 1.174-1.173 1.174-.648 0-1.173-.526-1.173-1.174 0-.648.525-1.174 1.173-1.174M66.088 10.259c.647 0 1.173.525 1.173 1.174 0 .648-.526 1.174-1.173 1.174-.648 0-1.174-.526-1.174-1.174 0-.65.526-1.174 1.174-1.174M80.902 7.5c.116.127.175.285.175.473 0 .245-.09.46-.267.649l-5.017 5.503h4.287c.222 0 .393.056.515.167.121.111.183.26.183.449 0 .221-.067.39-.2.507-.132.116-.327.174-.581.174h-5.781c-.213 0-.376-.06-.491-.183-.116-.12-.174-.277-.174-.465 0-.221.088-.426.265-.615l5.035-5.553h-4.005c-.222 0-.393-.056-.515-.167-.12-.111-.182-.26-.182-.449 0-.455.255-.681.764-.681h5.5c.21 0 .373.063.49.19M84.369 8.938c-.4.4-.655.98-.765 1.746h4.286c.023-.765-.136-1.347-.473-1.746-.338-.4-.817-.598-1.437-.598-.676 0-1.213.199-1.611.598m4.81 2.535c-.118.117-.274.175-.475.175h-5.167c.012.82.222 1.455.632 1.905.41.448 1.002.673 1.777.673.775 0 1.495-.222 2.16-.666.122-.078.244-.116.366-.116.155 0 .282.061.381.183.1.122.15.265.15.432 0 .256-.11.471-.331.649-.3.243-.712.443-1.238.598-.527.156-1.055.233-1.587.233-.798 0-1.496-.161-2.093-.482-.6-.322-1.06-.782-1.388-1.38-.327-.6-.49-1.291-.49-2.078 0-.877.168-1.655.507-2.337.337-.682.81-1.21 1.42-1.587.609-.377 1.313-.567 2.11-.567 1.108 0 1.958.33 2.55.99.592.66.89 1.616.89 2.868 0 .222-.059.391-.175.507M96.288 7.275c.128.111.192.272.192.482 0 .51-.277.787-.831.831l-.448.05c-.765.078-1.332.3-1.704.665-.37.366-.583.905-.64 1.614l-.315 3.79c-.022.277-.116.48-.282.607-.167.128-.372.192-.615.192-.244 0-.44-.067-.59-.2-.149-.133-.213-.332-.19-.599l.547-6.8c.011-.244.106-.432.283-.566.177-.132.382-.198.614-.198.222 0 .398.063.532.19.133.128.194.313.183.557l-.05.683c.553-.854 1.429-1.325 2.625-1.414l.184-.016c.21-.022.379.022.505.132M102.456 13.344c.41-.576.617-1.351.617-2.328 0-.831-.193-1.466-.574-1.904-.382-.437-.929-.656-1.636-.656-.777 0-1.37.288-1.78.864-.408.577-.613 1.353-.613 2.328 0 .843.191 1.48.572 1.913.383.431.933.648 1.653.648.766 0 1.352-.289 1.761-.865m-3.838 1.713c-.586-.321-1.04-.781-1.361-1.38-.322-.6-.482-1.291-.482-2.079 0-.91.169-1.7.507-2.377.337-.676.814-1.197 1.428-1.563.615-.366 1.327-.549 2.135-.549.797 0 1.49.163 2.076.49.588.328 1.042.788 1.363 1.38.322.593.482 1.29.482 2.087 0 .909-.168 1.7-.506 2.37-.34.67-.815 1.189-1.43 1.554-.614.366-1.33.549-2.15.549-.787 0-1.474-.161-2.062-.482M113.023 8.938c-.398.4-.653.98-.764 1.746h4.287c.022-.765-.136-1.347-.474-1.746-.337-.4-.817-.598-1.437-.598-.676 0-1.213.199-1.612.598m4.81 2.535c-.116.117-.274.175-.474.175h-5.166c.011.82.221 1.455.632 1.905.408.448 1.002.673 1.778.673.775 0 1.493-.222 2.158-.666.122-.078.245-.116.366-.116.155 0 .282.061.383.183.099.122.148.265.148.432 0 .256-.11.471-.332.649-.299.243-.711.443-1.237.598-.525.156-1.055.233-1.587.233-.798 0-1.496-.161-2.093-.482-.598-.322-1.062-.782-1.387-1.38-.327-.6-.49-1.291-.49-2.078 0-.877.168-1.655.506-2.337.339-.682.812-1.21 1.42-1.587.61-.377 1.313-.567 2.11-.567 1.107 0 1.959.33 2.551.99.592.66.888 1.616.888 2.868 0 .222-.057.391-.174.507M122.806 5.513c-.283.31-.452.77-.507 1.38l-.034.416h1.646c.222 0 .39.055.506.166.116.11.175.26.175.448 0 .455-.255.682-.764.682h-1.662l-.482 6.102c-.011.267-.102.466-.273.6-.173.132-.374.2-.607.2-.233 0-.426-.068-.582-.2-.155-.134-.227-.333-.215-.6l.481-6.102h-.98c-.221 0-.393-.055-.515-.166-.123-.111-.183-.26-.183-.449 0-.221.066-.39.2-.507.132-.117.326-.174.58-.174h.999l.016-.217c.177-2.127 1.323-3.258 3.438-3.391l.35-.017c.586-.033.88.161.88.582 0 .21-.06.372-.183.482-.122.111-.299.177-.53.199l-.45.033c-.587.045-1.022.223-1.304.533M129.221 5.513c-.283.31-.452.77-.508 1.38l-.033.416h1.645c.223 0 .391.055.507.166.116.11.174.26.174.448 0 .455-.255.682-.763.682h-1.662l-.482 6.102c-.011.267-.102.466-.274.6-.172.132-.374.2-.607.2-.232 0-.426-.068-.581-.2-.155-.134-.227-.333-.216-.6l.482-6.102h-.98c-.221 0-.394-.055-.515-.166-.123-.111-.184-.26-.184-.449 0-.221.067-.39.2-.507.132-.117.327-.174.582-.174h.997l.017-.217c.177-2.127 1.323-3.258 3.438-3.391l.349-.017c.587-.033.88.161.88.582 0 .21-.06.372-.182.482-.123.111-.3.177-.531.199l-.45.033c-.586.045-1.02.223-1.303.533M137.07 13.344c.41-.576.615-1.351.615-2.328 0-.831-.19-1.466-.573-1.904-.382-.437-.928-.656-1.636-.656-.777 0-1.368.288-1.779.864-.41.577-.613 1.353-.613 2.328 0 .843.19 1.48.572 1.913.383.431.933.648 1.653.648.765 0 1.35-.289 1.761-.865m-3.838 1.713c-.587-.321-1.04-.781-1.362-1.38-.32-.6-.482-1.291-.482-2.079 0-.91.17-1.7.507-2.377.337-.676.814-1.197 1.43-1.563.613-.366 1.326-.549 2.133-.549.798 0 1.49.163 2.077.49.588.328 1.04.788 1.363 1.38.321.593.482 1.29.482 2.087 0 .909-.17 1.7-.507 2.37-.338.67-.815 1.189-1.43 1.554-.613.366-1.33.549-2.15.549-.787 0-1.473-.161-2.06-.482M146.317 7.275c.128.111.192.272.192.482 0 .51-.278.787-.83.831l-.45.05c-.763.078-1.331.3-1.703.665-.37.366-.583.905-.639 1.614l-.316 3.79c-.022.277-.116.48-.281.607-.168.128-.372.192-.615.192-.245 0-.44-.067-.592-.2-.148-.133-.212-.332-.189-.599l.548-6.8c.011-.244.105-.432.283-.566.176-.132.381-.198.613-.198.222 0 .399.063.533.19.132.128.194.313.181.557l-.049.683c.553-.854 1.428-1.325 2.626-1.414l.182-.016c.21-.022.38.022.506.132M150.14 12.413c-.011.066-.016.166-.016.3 0 .498.113.877.341 1.138.226.261.545.39.955.39.133 0 .265-.008.397-.023.134-.018.24-.025.317-.025.132 0 .239.052.316.157.077.106.116.252.116.44 0 .278-.107.472-.324.583-.216.11-.596.166-1.138.166-.842 0-1.496-.233-1.961-.698-.465-.467-.698-1.12-.698-1.963 0-.177.006-.315.018-.416l.299-3.856h-.981c-.222 0-.393-.056-.515-.167-.122-.11-.183-.266-.183-.466 0-.21.067-.373.2-.49.133-.116.326-.175.58-.175h.998l.132-1.729c.023-.232.117-.42.284-.566.166-.143.37-.215.615-.215.254 0 .452.072.597.215.145.146.204.34.183.583l-.134 1.712h1.646c.21 0 .376.056.5.166.12.111.18.26.18.45 0 .455-.254.682-.763.682h-1.662l-.299 3.807zM164.935 7.824c.47.477.706 1.18.706 2.112 0 .222-.005.388-.017.499l-.332 4.272c-.023.255-.114.452-.274.591-.16.138-.367.208-.623.208-.254 0-.454-.07-.598-.208-.144-.139-.205-.336-.183-.59l.334-4.19c.009-.078.015-.194.015-.35 0-1.13-.542-1.696-1.627-1.696-.688 0-1.233.205-1.637.615-.405.41-.634.982-.69 1.713l-.316 3.907c-.022.255-.113.452-.273.591-.162.138-.37.208-.624.208s-.452-.07-.59-.208c-.138-.139-.202-.336-.19-.59l.548-6.8c.011-.233.105-.42.283-.558.177-.139.387-.208.63-.208.232 0 .416.067.549.2.133.133.193.316.183.548l-.05.582c.277-.432.65-.767 1.122-1.005.47-.239 1-.358 1.586-.358.908 0 1.598.238 2.068.715M172.97 13.344c.411-.576.616-1.351.616-2.328 0-.831-.192-1.466-.574-1.904-.38-.437-.928-.656-1.636-.656-.776 0-1.368.288-1.779.864-.408.577-.614 1.353-.614 2.328 0 .843.191 1.48.573 1.913.383.431.934.648 1.653.648.765 0 1.352-.289 1.762-.865m-3.838 1.713c-.586-.321-1.042-.781-1.363-1.38-.32-.6-.48-1.291-.48-2.079 0-.91.168-1.7.505-2.377.339-.676.814-1.197 1.43-1.563.615-.366 1.326-.549 2.135-.549.797 0 1.49.163 2.075.49.588.328 1.042.788 1.363 1.38.322.593.482 1.29.482 2.087 0 .909-.168 1.7-.506 2.37-.339.67-.815 1.189-1.43 1.554-.614.366-1.331.549-2.151.549-.786 0-1.473-.161-2.06-.482M183.704 7.824c.47.477.706 1.18.706 2.112 0 .222-.006.388-.017.499l-.332 4.272c-.023.255-.115.452-.274.591-.16.138-.369.208-.624.208-.254 0-.453-.07-.598-.208-.144-.139-.204-.336-.183-.59l.333-4.19c.01-.078.016-.194.016-.35 0-1.13-.542-1.696-1.627-1.696-.687 0-1.232.205-1.637.615-.405.41-.633.982-.69 1.713l-.315 3.907c-.022.255-.114.452-.274.591-.16.138-.369.208-.624.208s-.451-.07-.589-.208c-.139-.139-.203-.336-.191-.59l.547-6.8c.012-.233.107-.42.283-.558.178-.139.388-.208.631-.208.233 0 .416.067.55.2.133.133.193.316.182.548l-.05.582c.276-.432.651-.767 1.121-1.005.47-.239 1-.358 1.587-.358.908 0 1.598.238 2.069.715M192.165 13.378c.415-.555.622-1.32.622-2.295 0-.842-.194-1.491-.581-1.946-.388-.454-.94-.681-1.661-.681-.73 0-1.307.28-1.728.839-.42.56-.631 1.323-.631 2.286 0 .855.194 1.506.582 1.954.387.45.94.674 1.66.674.743 0 1.322-.277 1.737-.831m.681-5.787c.526.322.933.779 1.22 1.372.29.593.433 1.283.433 2.07 0 .887-.161 1.671-.482 2.353-.32.682-.773 1.212-1.354 1.588-.582.376-1.25.564-2.001.564-.631 0-1.178-.132-1.637-.398-.459-.266-.812-.643-1.055-1.131l-.05.698c-.011.255-.099.452-.266.591-.166.138-.372.208-.614.208-.245 0-.438-.07-.582-.208-.145-.139-.21-.336-.2-.59l.831-10.326c.011-.233.105-.42.283-.565.177-.144.388-.217.631-.217s.435.067.572.2c.14.133.203.316.193.549l-.333 4.073c.276-.41.645-.73 1.105-.964.46-.233.96-.349 1.503-.349.676 0 1.276.161 1.803.482M200.46 13.677c.399-.41.625-.937.68-1.58l.035-.465h-.466c-.82 0-1.462.044-1.927.133-.466.088-.797.233-.997.431-.2.2-.3.478-.3.832 0 .388.136.696.408.923.272.227.64.34 1.105.34.575 0 1.063-.204 1.463-.614m2.442-3.708c0 .21-.006.372-.018.482l-.33 4.29c-.013.244-.093.432-.243.566-.15.132-.346.2-.59.2-.243 0-.437-.076-.581-.226-.143-.15-.205-.341-.182-.574l.032-.565c-.232.455-.552.8-.963 1.039-.41.238-.887.358-1.428.358-.81 0-1.477-.219-2.002-.657-.527-.438-.789-1-.789-1.687 0-.621.159-1.112.482-1.472.32-.36.832-.623 1.536-.79.703-.166 1.648-.25 2.832-.25h.599l.033-.415c.044-.632-.068-1.094-.332-1.388-.265-.294-.698-.441-1.296-.441-.732 0-1.54.245-2.426.732-.1.055-.21.083-.332.083-.166 0-.304-.061-.416-.183-.11-.122-.166-.266-.166-.432 0-.266.139-.488.416-.665.398-.266.871-.477 1.42-.633.548-.155 1.105-.232 1.67-.232 2.048 0 3.074.954 3.074 2.86M211.68 7.824c.47.477.706 1.18.706 2.112 0 .222-.006.388-.017.499l-.332 4.272c-.023.255-.114.452-.275.591-.16.138-.367.208-.623.208-.254 0-.454-.07-.597-.208-.145-.139-.206-.336-.184-.59l.333-4.19c.01-.078.016-.194.016-.35 0-1.13-.542-1.696-1.628-1.696-.686 0-1.232.205-1.637.615-.403.41-.634.982-.689 1.713l-.315 3.907c-.022.255-.113.452-.274.591-.162.138-.369.208-.623.208-.255 0-.452-.07-.59-.208-.138-.139-.203-.336-.191-.59l.548-6.8c.01-.233.105-.42.282-.558.178-.139.388-.208.631-.208.233 0 .416.067.549.2.133.133.193.316.184.548l-.05.582c.275-.432.65-.767 1.12-1.005.471-.239 1-.358 1.588-.358.908 0 1.597.238 2.068.715M221.013 14.242c.133.132.2.293.2.482 0 .2-.087.382-.258.549-.173.167-.362.25-.573.25-.2 0-.377-.083-.532-.25l-3.672-3.642-.25 3.093c-.022.256-.116.45-.281.582-.166.134-.365.2-.598.2-.244 0-.444-.072-.598-.217-.156-.144-.222-.343-.2-.598l.815-10.292c.01-.255.104-.449.28-.583.178-.132.383-.2.616-.2.244 0 .438.07.582.209.143.139.211.34.198.607l-.513 6.5 3.92-3.508c.155-.154.332-.232.532-.232s.373.075.524.225c.149.15.223.318.223.507 0 .199-.083.376-.249.532l-3.157 2.777 2.991 3.009zM233.78 3.745c.092.092.13.218.114.38l-.31 3.898c-.023.352-.191.529-.506.529-.145 0-.256-.044-.332-.132-.076-.089-.109-.22-.092-.397l.194-2.484-1.136 1.92c-.077.123-.154.212-.23.265-.077.053-.17.08-.277.08-.099 0-.182-.027-.246-.08-.066-.054-.125-.142-.178-.265l-.851-1.851-.195 2.415c-.008.177-.058.308-.15.397-.092.088-.214.132-.367.132-.146 0-.257-.044-.334-.132-.076-.089-.11-.22-.102-.397l.31-3.899c.015-.16.074-.287.178-.38.103-.091.223-.137.361-.137.2 0 .352.119.46.356l1.195 2.691 1.62-2.69c.146-.238.323-.357.53-.357.137 0 .251.046.343.138m-5.286.322c0 .307-.18.46-.539.46h-1.126l-.277 3.507c-.007.161-.065.288-.177.38-.11.092-.244.138-.397.138-.153 0-.277-.046-.373-.138-.096-.092-.14-.219-.132-.38l.286-3.507h-1.113c-.315 0-.471-.138-.471-.414 0-.307.175-.46.528-.46h3.32c.315 0 .471.138.471.414" transform="translate(-119 -6209) translate(119 5833) translate(0 376)"/>
                </g>
            </g>
        </g>
    </g>
</svg>
